:SAMPLES-PER-SECOND 30
:FULLY-SPECIFIED
:DEGREES
1410
root  33.3854 38.8277 6.58355 161.966 64.4358 170.321
RightUpLeg  7.81622 -29.5734 -30.0847
RightLeg  21.8834 -11.3226 -5.03402
RightFoot  -2.61011 -1.00158 12.836
RightToes  0.000481921 0.542163 -0.142578
Spine  9.62057 5.37957 21.5446
Spine1  13.5844 7.61195 0.370537
HEad  13.9245 -36.8085 -7.57144
LeftShoulder1  6.95221 -10.2995 -43.8254
LeftArm  1.21896 14.1037 -29.6979
LeftForeArm  -171.424 -61.6078 -163.42
LeftHand  -0.25398 0.0180481 5.50724
RightShoulder  5.31572 8.68314 37.5589
RightArm  -34.7845 -23.4293 11.1671
RightForeArm  65.9087 75.7627 119.693
RightHand  -1.8147 11.69 -12.7452
LeftUpLeg  -7.52257 4.49153 -5.65194
LeftLeg  25.2507 0.134367 0.402367
LeftFoot  -7.4298 0.0474834 -0.0823553
LeftToes  1.06244e-005 4.65869e-005 -8.65518e-006
1411
root  32.9684 38.6749 6.38166 161.806 61.1916 170.4
RightUpLeg  8.32702 -29.9469 -31.763
RightLeg  23.4229 -12.8226 -6.23543
RightFoot  -2.31371 -1.01755 12.6431
RightToes  0.000481921 0.542163 -0.142578
Spine  10.7647 5.49212 25.6957
Spine1  12.9969 9.79837 -4.46219
HEad  16.0227 -37.2099 -9.30142
LeftShoulder1  6.84248 -10.2957 -43.1062
LeftArm  -1.68594 11.7425 -29.7512
LeftForeArm  -168.716 -60.5661 -164.33
LeftHand  -0.25398 0.0180481 5.50724
RightShoulder  4.42294 7.80378 33.1716
RightArm  -39.6309 -6.23214 5.91982
RightForeArm  -6.45655 73.7398 49.7037
RightHand  -1.29552 10.5113 -9.93768
LeftUpLeg  -8.05263 4.16126 -7.08762
LeftLeg  25.8713 -1.66877 -0.545701
LeftFoot  -7.31465 0.0434469 0.0291602
LeftToes  1.06244e-005 4.65869e-005 -8.65518e-006
1412
root  32.5239 38.5033 6.17421 160.106 59.803 168.793
RightUpLeg  6.96029 -28.8346 -32.9997
RightLeg  25.9324 -14.0628 -7.55416
RightFoot  -1.9867 -0.923677 11.0955
RightToes  0.000481921 0.542163 -0.142578
Spine  12.4287 5.66705 29.7111
Spine1  13.167 12.2817 -9.25472
HEad  17.5653 -36.9012 -11.6737
LeftShoulder1  6.93936 -10.6261 -42.671
LeftArm  -5.34569 11.1453 -29.9058
LeftForeArm  -168.666 -59.5441 -164.958
LeftHand  -0.25398 0.0180481 5.50724
RightShoulder  3.66316 7.63335 26.8855
RightArm  -45.7014 8.12609 1.02112
RightForeArm  -38.8158 54.5504 18.303
RightHand  -1.05108 9.50525 -8.67164
LeftUpLeg  -8.45421 4.38601 -8.92897
LeftLeg  26.3186 -2.217 -0.856956
LeftFoot  -7.17522 0.0389129 0.172549
LeftToes  1.06244e-005 4.65869e-005 -8.65518e-006
1413
root  32.1212 38.3404 5.99044 157.882 59.3903 166.258
RightUpLeg  4.58697 -27.5198 -34.0345
RightLeg  28.5389 -14.7965 -8.78075
RightFoot  -1.56855 -0.792532 9.12655
RightToes  0.000481921 0.542163 -0.142578
Spine  14.6361 5.92358 33.6275
Spine1  13.228 15.3469 -14.7707
HEad  17.936 -37.5111 -12.6063
LeftShoulder1  6.78887 -10.6571 -41.5786
LeftArm  -7.40304 10.7123 -29.7001
LeftForeArm  -171.379 -58.9805 -165.065
LeftHand  -0.25398 0.0180481 5.50724
RightShoulder  2.83293 7.94702 18.2217
RightArm  -50.0801 16.6497 -2.7953
RightForeArm  -45.2272 30.0656 7.93967
RightHand  -0.968144 10.2281 -7.69498
LeftUpLeg  -8.96985 4.91802 -10.9586
LeftLeg  26.4121 -2.17367 -0.838847
LeftFoot  -6.94964 0.0241452 0.454889
LeftToes  1.06244e-005 4.65869e-005 -8.65518e-006
1414
root  31.8315 38.2451 5.8739 156.363 58.7703 164.179
RightUpLeg  2.98063 -26.9219 -35.0692
RightLeg  29.9963 -15.29 -9.56933
RightFoot  -1.09711 -0.743378 8.19069
RightToes  0.000481921 0.542163 -0.142578
Spine  16.6686 6.05453 36.3087
Spine1  12.624 17.969 -19.9888
HEad  17.5646 -38.5554 -11.627
LeftShoulder1  6.39813 -10.4041 -39.7577
LeftArm  -7.80278 10.7929 -29.1754
LeftForeArm  -172.683 -58.346 -165.317
LeftHand  -0.25398 0.0180481 5.50724
RightShoulder  1.80312 7.8003 8.47577
RightArm  -48.799 20.6019 -3.1514
RightForeArm  -45.8081 9.02805 2.07232
RightHand  -0.866969 11.2046 -6.57068
LeftUpLeg  -9.37134 5.70025 -12.5898
LeftLeg  25.9668 -2.74454 -1.11878
LeftFoot  -6.58344 0.0198865 0.476104
LeftToes  1.06244e-005 4.65869e-005 -8.65518e-006
1415
root  31.7041 38.29 5.83103 156.491 57.537 163.776
RightUpLeg  3.22577 -27.4448 -35.869
RightLeg  29.5155 -15.7821 -9.68072
RightFoot  -0.542941 -0.794976 8.35272
RightToes  0.000481921 0.542163 -0.142578
Spine  17.5439 6.15924 37.0024
Spine1  11.6549 19.1112 -22.9463
HEad  17.2697 -39.1686 -9.72465
LeftShoulder1  6.07965 -10.2238 -38.1248
LeftArm  -7.81534 12.8107 -29.0028
LeftForeArm  -171.517 -57.228 -166.018
LeftHand  -0.25398 0.0180481 5.50724
RightShoulder  0.973212 6.63554 1.35661
RightArm  -48.5701 22.7246 -1.12559
RightForeArm  -45.3574 0.343257 -0.582892
RightHand  -0.754444 10.9457 -5.87126
LeftUpLeg  -9.26979 6.26868 -13.2864
LeftLeg  24.7741 -4.17884 -1.76897
LeftFoot  -6.02748 0.0473748 -0.231363
LeftToes  1.06244e-005 4.65869e-005 -8.65518e-006
1416
root  31.74 38.5031 5.83425 158.231 56.1357 165.069
RightUpLeg  4.90426 -28.8631 -35.8798
RightLeg  27.1851 -16.4127 -9.20582
RightFoot  0.294108 -0.835119 8.20817
RightToes  0.000481921 0.542163 -0.142578
Spine  17.13 6.44718 36.1481
Spine1  10.7146 18.9068 -23.0947
HEad  17.5551 -39.4286 -7.80802
LeftShoulder1  5.95228 -10.1847 -37.3492
LeftArm  -7.8569 16.8766 -29.8206
LeftForeArm  -170.144 -56.1261 -166.69
LeftHand  -0.25398 0.0180481 5.50724
RightShoulder  0.666335 4.7922 -0.324447
RightArm  -58.4279 24.0448 0.0851799
RightForeArm  -40.4847 7.58419 -0.0711908
RightHand  -0.705244 9.96963 -5.83291
LeftUpLeg  -8.61098 6.23008 -12.9058
LeftLeg  22.7199 -5.85363 -2.35758
LeftFoot  -5.26052 0.11293 -1.52383
LeftToes  1.06244e-005 4.65869e-005 -8.65518e-006
1417
root  31.894 38.8375 5.86445 160.742 55.1612 167.161
RightUpLeg  6.86164 -29.9543 -34.7552
RightLeg  23.7839 -17.7392 -8.39773
RightFoot  1.51044 -0.762145 6.86183
RightToes  0.000481921 0.542163 -0.142578
Spine  16.0741 6.93093 34.499
Spine1  9.90284 18.157 -21.5547
HEad  18.0061 -39.5753 -5.97616
LeftShoulder1  5.90243 -10.1178 -37.2012
LeftArm  -7.64433 21.3953 -31.5412
LeftForeArm  -169.489 -55.5976 -166.996
LeftHand  -0.25398 0.0180481 5.50724
RightShoulder  0.722217 3.31014 2.51088
RightArm  -69.1184 24.1687 0.639648
RightForeArm  -33.3839 26.0099 6.89292
RightHand  -0.894132 9.70753 -7.34246
LeftUpLeg  -7.59023 5.92338 -11.753
LeftLeg  19.9071 -7.2841 -2.58352
LeftFoot  -4.28033 0.190706 -2.6763
LeftToes  1.06244e-005 4.65869e-005 -8.65518e-006
